<?xml version="1.0" encoding="UTF-8" standalone="no"?>
<svg
   xmlns:dc="http://purl.org/dc/elements/1.1/"
   xmlns:cc="http://creativecommons.org/ns#"
   xmlns:rdf="http://www.w3.org/1999/02/22-rdf-syntax-ns#"
   xmlns:svg="http://www.w3.org/2000/svg"
   xmlns="http://www.w3.org/2000/svg"
   xmlns:sodipodi="http://sodipodi.sourceforge.net/DTD/sodipodi-0.dtd"
   xmlns:inkscape="http://www.inkscape.org/namespaces/inkscape"
   version="1.1"
   id="图层_2"
   x="0px"
   y="0px"
   width="1100"
   height="1100"
   viewBox="0 0 1100 1100"
   enable-background="new 0 0 500 500"
   xml:space="preserve"
   inkscape:version="1.0.1 (3bc2e813f5, 2020-09-07)"
   sodipodi:docname="BSicon_Coach-CHN.svg"><metadata
     id="metadata17"><rdf:RDF><cc:Work
         rdf:about=""><dc:format>image/svg+xml</dc:format><dc:type
           rdf:resource="http://purl.org/dc/dcmitype/StillImage" /><dc:title /></cc:Work></rdf:RDF></metadata><defs
     id="defs15" /><sodipodi:namedview
     pagecolor="#ffffff"
     bordercolor="#666666"
     borderopacity="1"
     objecttolerance="10"
     gridtolerance="10"
     guidetolerance="10"
     inkscape:pageopacity="0"
     inkscape:pageshadow="2"
     inkscape:window-width="1920"
     inkscape:window-height="1009"
     id="namedview13"
     showgrid="false"
     inkscape:zoom="0.7071068"
     inkscape:cx="456.93662"
     inkscape:cy="659.8812"
     inkscape:window-x="-8"
     inkscape:window-y="-8"
     inkscape:window-maximized="1"
     inkscape:current-layer="图层_2"
     inkscape:document-rotation="0"
     inkscape:snap-object-midpoints="true" /><g
     id="g871"><path
       id="path852"
       style="opacity:1;fill:#000000;stroke-width:8.65913;stroke-miterlimit:10"
       d="m 371.29026,693.67688 a 81.6129,81.6129 0 0 1 -81.6129,81.6129 81.6129,81.6129 0 0 1 -81.6129,-81.6129 81.6129,81.6129 0 0 1 81.6129,-81.6129 81.6129,81.6129 0 0 1 81.6129,81.6129 z" /><path
       id="circle859"
       style="opacity:1;fill:#000000;stroke-width:8.65913;stroke-miterlimit:10"
       d="m 894.67747,693.67688 a 81.6129,81.6129 0 0 1 -81.6129,81.6129 81.6129,81.6129 0 0 1 -81.6129,-81.6129 81.6129,81.6129 0 0 1 81.6129,-81.6129 81.6129,81.6129 0 0 1 81.6129,81.6129 z" /><path
       id="rect861"
       style="opacity:1;fill:#000000;stroke-width:9.39826;stroke-miterlimit:10"
       d="m 145.9668,341.5 c -24.0811,0 -43.4668,19.3857 -43.4668,43.4668 v 40.80664 227.09765 43.4668 h 43.4668 28.41992 c -0.0206,-0.88657 -0.0311,-1.77334 -0.0312,-2.66015 -9.1e-4,-63.69142 51.63084,-115.32404 115.32226,-115.32422 63.69142,1.7e-4 115.32318,51.6328 115.32227,115.32422 -1.9e-4,0.88681 -0.0106,1.77358 -0.0312,2.66015 h 292.80469 c -0.0206,-0.88657 -0.0311,-1.77334 -0.0312,-2.66015 -9.1e-4,-63.69142 51.63084,-115.32404 115.32226,-115.32422 63.69218,-9.1e-4 115.32513,51.63204 115.32422,115.32422 -1.9e-4,0.88681 -0.0106,1.77358 -0.0312,2.66015 h 31.9668 43.46678 V 652.87109 425.77344 384.9668 c 0,-24.0811 -19.38568,-43.4668 -43.46678,-43.4668 z m 9.40625,46.12891 H 313.0957 c 7.1752,0 12.95313,5.77792 12.95313,12.95312 v 103.60938 c 0,7.1752 -5.77793,12.95312 -12.95313,12.95312 H 155.37305 c -7.1752,0 -12.95313,-5.77792 -12.95313,-12.95312 V 400.58203 c 0,-7.1752 5.77793,-12.95312 12.95313,-12.95312 z m 212.90234,0 h 157.72266 c 7.1752,0 12.95312,5.77792 12.95312,12.95312 v 103.60938 c 0,7.1752 -5.77792,12.95312 -12.95312,12.95312 H 368.27539 c -7.1752,0 -12.95312,-5.77792 -12.95312,-12.95312 V 400.58203 c 0,-7.1752 5.77792,-12.95312 12.95312,-12.95312 z m 212.9043,0 h 157.72265 c 7.1752,0 12.95313,5.77792 12.95313,12.95312 v 103.60938 c 0,7.1752 -5.77793,12.95312 -12.95313,12.95312 H 581.17969 c -7.1751,0 -12.95313,-5.77792 -12.95313,-12.95312 V 400.58203 c 0,-7.1752 5.77803,-12.95312 12.95313,-12.95312 z m 212.90234,0 h 157.72266 c 7.1752,0 12.95312,5.77792 12.95312,12.95312 v 103.60938 c 0,7.1752 -5.77792,12.95312 -12.95312,12.95312 H 794.08203 c -7.1752,0 -12.95312,-5.77792 -12.95312,-12.95312 V 400.58203 c 0,-7.1752 5.77792,-12.95312 12.95312,-12.95312 z M 533.66992,540.23047 h 39.66016 c 5.49548,0 9.91992,4.42444 9.91992,9.91992 l -0.1875,15.33008 H 621.5 c 12.188,0 22,9.812 22,22 v 61.5 c 0,12.188 -9.812,22 -22,22 H 484 c -12.188,0 -22,-9.812 -22,-22 v -61.5 c 0,-12.188 9.812,-22 22,-22 h 39.9375 L 523.75,550.15039 c 0,-5.49548 4.42444,-9.91992 9.91992,-9.91992 z"
       sodipodi:nodetypes="ssccccccccccccscccccsssssssssssssssssssssssssssssssssssssssssccssssssssccs" /><path
       id="rect859"
       style="opacity:1;fill:#000000;stroke-width:5.305;stroke-miterlimit:10"
       d="m 541.5,554.98047 c -1.939,0 -3.5,1.561 -3.5,3.5 v 1.98046 1.01954 3.5 h 3.5 23 3.5 v -3.5 -1.01954 -1.98046 c 0,-1.939 -1.561,-3.5 -3.5,-3.5 z" /></g></svg>
